<mxfile host="Electron" modified="2024-07-15T10:51:36.358Z" agent="Mozilla/5.0 (Windows NT 10.0; Win64; x64) AppleWebKit/537.36 (KHTML, like Gecko) draw.io/24.6.4 Chrome/124.0.6367.207 Electron/30.0.6 Safari/537.36" etag="YAevYHIDYP4zCTlR1aKQ" version="24.6.4" type="device">
  <diagram name="Page-1" id="cuTrMUr7h4BsO1YZslC1">
    <mxGraphModel dx="576" dy="334" grid="1" gridSize="10" guides="1" tooltips="1" connect="1" arrows="1" fold="1" page="1" pageScale="1" pageWidth="827" pageHeight="1169" math="0" shadow="0">
      <root>
        <mxCell id="0" />
        <mxCell id="1" parent="0" />
        <mxCell id="mdAf7T-0egApHh9d--ax-3" value="CAN" style="rounded=0;whiteSpace=wrap;html=1;fillColor=#d5e8d4;strokeColor=#82b366;shadow=1;" vertex="1" parent="1">
          <mxGeometry x="270" y="490" width="200" height="150" as="geometry" />
        </mxCell>
        <mxCell id="mdAf7T-0egApHh9d--ax-4" value="Flight&lt;div&gt;Controller&lt;/div&gt;" style="whiteSpace=wrap;html=1;aspect=fixed;fillColor=#008a00;fontColor=#ffffff;strokeColor=#005700;" vertex="1" parent="1">
          <mxGeometry x="300" y="535" width="85" height="85" as="geometry" />
        </mxCell>
        <mxCell id="mdAf7T-0egApHh9d--ax-5" value="" style="rounded=0;whiteSpace=wrap;html=1;fillColor=#008a00;fontColor=#ffffff;strokeColor=#005700;" vertex="1" parent="1">
          <mxGeometry x="270" y="535" width="30" height="85" as="geometry" />
        </mxCell>
        <mxCell id="mdAf7T-0egApHh9d--ax-7" value="" style="rounded=0;whiteSpace=wrap;html=1;fillColor=#330000;" vertex="1" parent="1">
          <mxGeometry x="450" y="590" width="20" height="30" as="geometry" />
        </mxCell>
        <mxCell id="mdAf7T-0egApHh9d--ax-8" value="" style="rounded=0;whiteSpace=wrap;html=1;fillColor=#330000;shadow=1;" vertex="1" parent="1">
          <mxGeometry x="470" y="530" width="20" height="40" as="geometry" />
        </mxCell>
        <mxCell id="mdAf7T-0egApHh9d--ax-9" value="" style="ellipse;whiteSpace=wrap;html=1;aspect=fixed;" vertex="1" parent="1">
          <mxGeometry x="295" y="542.5" width="3" height="3" as="geometry" />
        </mxCell>
        <mxCell id="mdAf7T-0egApHh9d--ax-11" value="" style="ellipse;whiteSpace=wrap;html=1;aspect=fixed;" vertex="1" parent="1">
          <mxGeometry x="288" y="542.5" width="3" height="3" as="geometry" />
        </mxCell>
        <mxCell id="mdAf7T-0egApHh9d--ax-12" value="" style="ellipse;whiteSpace=wrap;html=1;aspect=fixed;" vertex="1" parent="1">
          <mxGeometry x="302" y="542.5" width="3" height="3" as="geometry" />
        </mxCell>
        <mxCell id="mdAf7T-0egApHh9d--ax-13" value="" style="ellipse;whiteSpace=wrap;html=1;aspect=fixed;" vertex="1" parent="1">
          <mxGeometry x="295" y="549.5" width="3" height="3" as="geometry" />
        </mxCell>
        <mxCell id="mdAf7T-0egApHh9d--ax-14" value="" style="ellipse;whiteSpace=wrap;html=1;aspect=fixed;" vertex="1" parent="1">
          <mxGeometry x="288" y="549.5" width="3" height="3" as="geometry" />
        </mxCell>
        <mxCell id="mdAf7T-0egApHh9d--ax-15" value="" style="ellipse;whiteSpace=wrap;html=1;aspect=fixed;" vertex="1" parent="1">
          <mxGeometry x="302" y="549.5" width="3" height="3" as="geometry" />
        </mxCell>
        <mxCell id="mdAf7T-0egApHh9d--ax-16" value="" style="ellipse;whiteSpace=wrap;html=1;aspect=fixed;" vertex="1" parent="1">
          <mxGeometry x="295" y="556.5" width="3" height="3" as="geometry" />
        </mxCell>
        <mxCell id="mdAf7T-0egApHh9d--ax-17" value="" style="ellipse;whiteSpace=wrap;html=1;aspect=fixed;" vertex="1" parent="1">
          <mxGeometry x="288" y="556.5" width="3" height="3" as="geometry" />
        </mxCell>
        <mxCell id="mdAf7T-0egApHh9d--ax-18" value="" style="ellipse;whiteSpace=wrap;html=1;aspect=fixed;" vertex="1" parent="1">
          <mxGeometry x="302" y="556.5" width="3" height="3" as="geometry" />
        </mxCell>
        <mxCell id="mdAf7T-0egApHh9d--ax-19" value="" style="ellipse;whiteSpace=wrap;html=1;aspect=fixed;" vertex="1" parent="1">
          <mxGeometry x="295" y="563.5" width="3" height="3" as="geometry" />
        </mxCell>
        <mxCell id="mdAf7T-0egApHh9d--ax-20" value="" style="ellipse;whiteSpace=wrap;html=1;aspect=fixed;" vertex="1" parent="1">
          <mxGeometry x="288" y="563.5" width="3" height="3" as="geometry" />
        </mxCell>
        <mxCell id="mdAf7T-0egApHh9d--ax-21" value="" style="ellipse;whiteSpace=wrap;html=1;aspect=fixed;" vertex="1" parent="1">
          <mxGeometry x="302" y="563.5" width="3" height="3" as="geometry" />
        </mxCell>
        <mxCell id="mdAf7T-0egApHh9d--ax-22" value="" style="ellipse;whiteSpace=wrap;html=1;aspect=fixed;" vertex="1" parent="1">
          <mxGeometry x="295" y="570.5" width="3" height="3" as="geometry" />
        </mxCell>
        <mxCell id="mdAf7T-0egApHh9d--ax-23" value="" style="ellipse;whiteSpace=wrap;html=1;aspect=fixed;" vertex="1" parent="1">
          <mxGeometry x="288" y="570.5" width="3" height="3" as="geometry" />
        </mxCell>
        <mxCell id="mdAf7T-0egApHh9d--ax-24" value="" style="ellipse;whiteSpace=wrap;html=1;aspect=fixed;" vertex="1" parent="1">
          <mxGeometry x="302" y="570.5" width="3" height="3" as="geometry" />
        </mxCell>
        <mxCell id="mdAf7T-0egApHh9d--ax-25" value="" style="ellipse;whiteSpace=wrap;html=1;aspect=fixed;" vertex="1" parent="1">
          <mxGeometry x="295" y="577.5" width="3" height="3" as="geometry" />
        </mxCell>
        <mxCell id="mdAf7T-0egApHh9d--ax-26" value="" style="ellipse;whiteSpace=wrap;html=1;aspect=fixed;" vertex="1" parent="1">
          <mxGeometry x="288" y="577.5" width="3" height="3" as="geometry" />
        </mxCell>
        <mxCell id="mdAf7T-0egApHh9d--ax-27" value="" style="ellipse;whiteSpace=wrap;html=1;aspect=fixed;" vertex="1" parent="1">
          <mxGeometry x="302" y="577.5" width="3" height="3" as="geometry" />
        </mxCell>
        <mxCell id="mdAf7T-0egApHh9d--ax-28" value="" style="ellipse;whiteSpace=wrap;html=1;aspect=fixed;" vertex="1" parent="1">
          <mxGeometry x="295" y="584.5" width="3" height="3" as="geometry" />
        </mxCell>
        <mxCell id="mdAf7T-0egApHh9d--ax-29" value="" style="ellipse;whiteSpace=wrap;html=1;aspect=fixed;" vertex="1" parent="1">
          <mxGeometry x="288" y="584.5" width="3" height="3" as="geometry" />
        </mxCell>
        <mxCell id="mdAf7T-0egApHh9d--ax-30" value="" style="ellipse;whiteSpace=wrap;html=1;aspect=fixed;" vertex="1" parent="1">
          <mxGeometry x="302" y="584.5" width="3" height="3" as="geometry" />
        </mxCell>
        <mxCell id="mdAf7T-0egApHh9d--ax-31" value="" style="ellipse;whiteSpace=wrap;html=1;aspect=fixed;" vertex="1" parent="1">
          <mxGeometry x="295" y="591.5" width="3" height="3" as="geometry" />
        </mxCell>
        <mxCell id="mdAf7T-0egApHh9d--ax-32" value="" style="ellipse;whiteSpace=wrap;html=1;aspect=fixed;" vertex="1" parent="1">
          <mxGeometry x="288" y="591.5" width="3" height="3" as="geometry" />
        </mxCell>
        <mxCell id="mdAf7T-0egApHh9d--ax-33" value="" style="ellipse;whiteSpace=wrap;html=1;aspect=fixed;" vertex="1" parent="1">
          <mxGeometry x="302" y="591.5" width="3" height="3" as="geometry" />
        </mxCell>
        <mxCell id="mdAf7T-0egApHh9d--ax-34" value="&lt;font color=&quot;#006633&quot;&gt;CAN / debug expansion&lt;/font&gt;" style="text;html=1;align=center;verticalAlign=middle;whiteSpace=wrap;rounded=0;" vertex="1" parent="1">
          <mxGeometry x="310" y="490" width="160" height="30" as="geometry" />
        </mxCell>
        <mxCell id="mdAf7T-0egApHh9d--ax-35" value="&lt;font color=&quot;#ffffff&quot;&gt;Servos&lt;/font&gt;" style="text;html=1;align=center;verticalAlign=middle;whiteSpace=wrap;rounded=0;rotation=-90;" vertex="1" parent="1">
          <mxGeometry x="248" y="563.5" width="60" height="30" as="geometry" />
        </mxCell>
        <mxCell id="mdAf7T-0egApHh9d--ax-36" value="&lt;font color=&quot;#ffffff&quot;&gt;CAN&lt;/font&gt;" style="text;html=1;align=center;verticalAlign=middle;whiteSpace=wrap;rounded=0;rotation=-90;" vertex="1" parent="1">
          <mxGeometry x="450" y="535" width="60" height="30" as="geometry" />
        </mxCell>
        <mxCell id="mdAf7T-0egApHh9d--ax-37" value="&lt;font color=&quot;#ffffff&quot;&gt;SWI&lt;/font&gt;" style="text;html=1;align=center;verticalAlign=middle;whiteSpace=wrap;rounded=0;rotation=-90;" vertex="1" parent="1">
          <mxGeometry x="430" y="590" width="60" height="30" as="geometry" />
        </mxCell>
        <mxCell id="mdAf7T-0egApHh9d--ax-38" value="" style="rounded=0;whiteSpace=wrap;html=1;fillColor=#330000;" vertex="1" parent="1">
          <mxGeometry x="270" y="510" width="30" height="20" as="geometry" />
        </mxCell>
        <mxCell id="mdAf7T-0egApHh9d--ax-39" value="&lt;font color=&quot;#ffffff&quot;&gt;USB&lt;/font&gt;" style="text;html=1;align=center;verticalAlign=middle;whiteSpace=wrap;rounded=0;rotation=0;" vertex="1" parent="1">
          <mxGeometry x="255" y="505" width="60" height="30" as="geometry" />
        </mxCell>
        <mxCell id="mdAf7T-0egApHh9d--ax-40" value="&lt;font style=&quot;font-size: 9px;&quot;&gt;BEC&lt;/font&gt;" style="rounded=0;whiteSpace=wrap;html=1;fontSize=10;fillColor=#9026c5;strokeColor=none;fontColor=#FFFFFF;" vertex="1" parent="1">
          <mxGeometry x="274" y="604" width="20" height="10" as="geometry" />
        </mxCell>
      </root>
    </mxGraphModel>
  </diagram>
</mxfile>
